<svg width="115" height="117" viewBox="0 0 115 117" fill="none" xmlns="http://www.w3.org/2000/svg">
<path d="M69.8491 115.809C62.9646 115.815 56.1351 114.582 49.687 112.17C49.3181 112.032 48.9801 111.822 48.6921 111.553C48.4042 111.284 48.1721 110.961 48.009 110.603C47.8459 110.244 47.7551 109.857 47.7416 109.463C47.7282 109.07 47.7924 108.677 47.9307 108.308C48.0689 107.939 48.2785 107.601 48.5474 107.313C48.8163 107.025 49.1393 106.793 49.4979 106.63C49.8565 106.467 50.2437 106.376 50.6374 106.363C51.0311 106.349 51.4236 106.414 51.7925 106.552C60.3412 109.711 69.5663 110.586 78.5566 109.09C87.5469 107.594 95.9914 103.779 103.056 98.021C81.0181 98.2554 59.4614 87.8403 48.7368 71.1284C41.8423 60.3852 39.5884 47.7437 42.2163 34.5698C44.2287 25.0167 48.3598 16.0371 54.3052 8.29345C42.9536 11.9053 33.1845 19.3016 26.6284 29.2475C20.0724 39.1935 17.1262 51.0872 18.2817 62.9434C18.322 63.3361 18.2843 63.733 18.1709 64.1111C18.0575 64.4893 17.8706 64.8413 17.6208 65.1471C17.371 65.4529 17.0633 65.7064 16.7154 65.893C16.3675 66.0796 15.9862 66.1957 15.5933 66.2347C15.2004 66.2736 14.8037 66.2346 14.4259 66.1199C14.0481 66.0052 13.6967 65.8171 13.3917 65.5663C13.0868 65.3155 12.8344 65.007 12.6489 64.6584C12.4635 64.3099 12.3487 63.9282 12.311 63.5352C10.8537 48.6185 15.2227 33.7164 24.5035 21.948C33.7844 10.1796 47.2576 2.4573 62.103 0.397456C62.7237 0.311049 63.3559 0.421228 63.9108 0.712504C64.4657 1.00378 64.9154 1.46153 65.1968 2.02148C65.4782 2.58143 65.5771 3.21546 65.4797 3.83453C65.3824 4.4536 65.0935 5.02663 64.6538 5.47314C49.3101 21.0586 39.9985 46.4019 53.7856 67.8881C64.6636 84.8374 88.0689 94.5317 110.714 91.4677C111.322 91.3855 111.94 91.4914 112.485 91.7711C113.031 92.0508 113.478 92.4909 113.765 93.0322C114.053 93.5735 114.168 94.19 114.095 94.7986C114.022 95.4073 113.764 95.9789 113.356 96.4365C107.873 102.542 101.164 107.422 93.6675 110.76C86.171 114.098 78.0551 115.818 69.8491 115.809V115.809Z" fill="#6C63FF"/>
<path d="M22.0015 117C17.6503 117 13.3968 115.71 9.77893 113.292C6.16105 110.875 3.34127 107.439 1.67614 103.419C0.011017 99.3991 -0.424683 94.9756 0.424192 90.708C1.27307 86.4404 3.36837 82.5204 6.44513 79.4437C9.52188 76.3669 13.4419 74.2716 17.7095 73.4227C21.9771 72.5739 26.4006 73.0095 30.4205 74.6747C34.4405 76.3398 37.8764 79.1596 40.2938 82.7775C42.7112 86.3954 44.0015 90.6488 44.0015 95C43.9949 100.833 41.6749 106.425 37.5505 110.549C33.4262 114.673 27.8342 116.993 22.0015 117V117ZM22.0015 79C18.837 79 15.7435 79.9384 13.1124 81.6965C10.4812 83.4546 8.43042 85.9535 7.21942 88.8771C6.00842 91.8007 5.69153 95.0178 6.3089 98.1215C6.92626 101.225 8.4501 104.076 10.6877 106.314C12.9254 108.551 15.7763 110.075 18.88 110.693C21.9837 111.31 25.2008 110.993 28.1244 109.782C31.048 108.571 33.5469 106.52 35.305 103.889C37.0631 101.258 38.0015 98.1645 38.0015 95C37.9966 90.758 36.3093 86.6912 33.3098 83.6917C30.3103 80.6921 26.2434 79.0049 22.0015 79V79Z" fill="#6C63FF"/>
</svg>
