<svg width="123" height="125" viewBox="0 0 123 125" fill="none" xmlns="http://www.w3.org/2000/svg">
<g filter="url(#filter0_d_1_31)">
<path d="M73.8491 115.809C66.9646 115.815 60.1351 114.582 53.687 112.17C53.3181 112.032 52.9801 111.822 52.6921 111.553C52.4042 111.284 52.1721 110.961 52.009 110.603C51.8459 110.244 51.7551 109.857 51.7416 109.463C51.7282 109.07 51.7924 108.677 51.9307 108.308C52.0689 107.939 52.2785 107.601 52.5474 107.313C52.8163 107.025 53.1393 106.793 53.4979 106.63C53.8565 106.467 54.2437 106.376 54.6374 106.363C55.0311 106.349 55.4236 106.414 55.7925 106.552C64.3412 109.711 73.5663 110.586 82.5566 109.09C91.5469 107.594 99.9914 103.779 107.056 98.021C85.0181 98.2554 63.4614 87.8403 52.7368 71.1284C45.8423 60.3852 43.5884 47.7437 46.2163 34.5698C48.2287 25.0167 52.3598 16.0371 58.3052 8.29345C46.9536 11.9053 37.1845 19.3016 30.6284 29.2475C24.0724 39.1935 21.1262 51.0872 22.2817 62.9434C22.322 63.3361 22.2843 63.733 22.1709 64.1111C22.0575 64.4893 21.8706 64.8413 21.6208 65.1471C21.371 65.4529 21.0633 65.7064 20.7154 65.893C20.3675 66.0796 19.9862 66.1957 19.5933 66.2347C19.2004 66.2736 18.8037 66.2346 18.4259 66.1199C18.0481 66.0052 17.6967 65.8171 17.3917 65.5663C17.0868 65.3155 16.8344 65.007 16.6489 64.6584C16.4635 64.3099 16.3487 63.9282 16.311 63.5352C14.8537 48.6185 19.2227 33.7164 28.5035 21.948C37.7844 10.1796 51.2576 2.4573 66.103 0.397456C66.7237 0.311049 67.3559 0.421228 67.9108 0.712504C68.4657 1.00378 68.9154 1.46153 69.1968 2.02148C69.4782 2.58143 69.5771 3.21546 69.4797 3.83453C69.3824 4.4536 69.0935 5.02663 68.6538 5.47314C53.3101 21.0586 43.9985 46.4019 57.7856 67.8881C68.6636 84.8374 92.0689 94.5317 114.714 91.4677C115.322 91.3855 115.94 91.4914 116.485 91.7711C117.031 92.0508 117.478 92.4909 117.765 93.0322C118.053 93.5735 118.168 94.19 118.095 94.7986C118.022 95.4073 117.764 95.9789 117.356 96.4365C111.873 102.542 105.164 107.422 97.6675 110.76C90.171 114.098 82.0551 115.818 73.8491 115.809V115.809Z" fill="#EEEEEE"/>
<path d="M26.0015 117C21.6503 117 17.3968 115.71 13.7789 113.292C10.161 110.875 7.34127 107.439 5.67614 103.419C4.01102 99.3991 3.57532 94.9756 4.42419 90.708C5.27307 86.4404 7.36837 82.5204 10.4451 79.4437C13.5219 76.3669 17.4419 74.2716 21.7095 73.4227C25.9771 72.5739 30.4006 73.0095 34.4205 74.6747C38.4405 76.3398 41.8764 79.1596 44.2938 82.7775C46.7112 86.3954 48.0015 90.6488 48.0015 95C47.9949 100.833 45.6749 106.425 41.5505 110.549C37.4262 114.673 31.8342 116.993 26.0015 117V117ZM26.0015 79C22.837 79 19.7435 79.9384 17.1124 81.6965C14.4812 83.4546 12.4304 85.9535 11.2194 88.8771C10.0084 91.8007 9.69153 95.0178 10.3089 98.1215C10.9263 101.225 12.4501 104.076 14.6877 106.314C16.9254 108.551 19.7763 110.075 22.88 110.693C25.9837 111.31 29.2008 110.993 32.1244 109.782C35.048 108.571 37.5469 106.52 39.305 103.889C41.0631 101.258 42.0015 98.1645 42.0015 95C41.9966 90.758 40.3093 86.6912 37.3098 83.6917C34.3103 80.6921 30.2434 79.0049 26.0015 79V79Z" fill="#EEEEEE"/>
</g>
<defs>
<filter id="filter0_d_1_31" x="0.00146484" y="0.368805" width="122.115" height="124.631" filterUnits="userSpaceOnUse" color-interpolation-filters="sRGB">
<feFlood flood-opacity="0" result="BackgroundImageFix"/>
<feColorMatrix in="SourceAlpha" type="matrix" values="0 0 0 0 0 0 0 0 0 0 0 0 0 0 0 0 0 0 127 0" result="hardAlpha"/>
<feOffset dy="4"/>
<feGaussianBlur stdDeviation="2"/>
<feComposite in2="hardAlpha" operator="out"/>
<feColorMatrix type="matrix" values="0 0 0 0 0 0 0 0 0 0 0 0 0 0 0 0 0 0 0.25 0"/>
<feBlend mode="normal" in2="BackgroundImageFix" result="effect1_dropShadow_1_31"/>
<feBlend mode="normal" in="SourceGraphic" in2="effect1_dropShadow_1_31" result="shape"/>
</filter>
</defs>
</svg>
