<svg width="129" height="129" viewBox="0 0 129 129" fill="none" xmlns="http://www.w3.org/2000/svg">
<g filter="url(#filter0_d_1_30)">
<path d="M64.4345 21.5692C63.2905 21.5691 62.1932 21.1146 61.3842 20.3056C60.5753 19.4967 60.1207 18.3994 60.1207 17.2553V4.31384C60.1225 3.17088 60.5777 2.07531 61.3865 1.26773C62.1953 0.460149 63.2916 0.00656128 64.4346 0.00656128C65.5775 0.00656128 66.6738 0.460149 67.4826 1.26773C68.2914 2.07531 68.7467 3.17088 68.7484 4.31384V17.2553C68.7484 17.8218 68.6368 18.3828 68.42 18.9062C68.2033 19.4296 67.8855 19.9051 67.4849 20.3057C67.0843 20.7063 66.6088 21.024 66.0854 21.2408C65.562 21.4576 65.001 21.5692 64.4345 21.5692V21.5692Z" fill="#2F2E41"/>
<path d="M64.4345 120.787C63.868 120.787 63.3071 120.676 62.7837 120.459C62.2603 120.242 61.7848 119.925 61.3842 119.524C60.9836 119.123 60.6659 118.648 60.4491 118.124C60.2323 117.601 60.1207 117.04 60.1207 116.474V103.532C60.1199 102.965 60.2308 102.403 60.4472 101.879C60.6636 101.355 60.9812 100.879 61.3819 100.477C61.7825 100.076 62.2584 99.7579 62.7822 99.5406C63.306 99.3234 63.8675 99.2117 64.4345 99.2117C65.0016 99.2117 65.5631 99.3234 66.0869 99.5406C66.6107 99.7579 67.0866 100.076 67.4872 100.477C67.8879 100.879 68.2055 101.355 68.4219 101.879C68.6383 102.403 68.7493 102.965 68.7484 103.532V116.474C68.7484 117.04 68.6368 117.601 68.42 118.124C68.2033 118.648 67.8855 119.123 67.4849 119.524C67.0843 119.925 66.6088 120.242 66.0854 120.459C65.562 120.676 65.0011 120.787 64.4345 120.787V120.787Z" fill="#2F2E41"/>
<path d="M94.9387 34.2033C94.0855 34.2033 93.2515 33.9502 92.5421 33.4762C91.8327 33.0022 91.2798 32.3285 90.9533 31.5402C90.6268 30.752 90.5414 29.8846 90.7078 29.0478C90.8743 28.211 91.2851 27.4424 91.8884 26.8391L101.039 17.6883C101.848 16.8801 102.945 16.4263 104.089 16.4267C105.233 16.427 106.329 16.8815 107.138 17.6902C107.947 18.499 108.401 19.5957 108.402 20.7394C108.402 21.883 107.948 22.98 107.14 23.7892L97.989 32.9399C97.5888 33.341 97.1133 33.6591 96.5899 33.8759C96.0664 34.0928 95.5053 34.204 94.9387 34.2033V34.2033Z" fill="#2F2E41"/>
<path d="M24.7796 104.362C23.9264 104.362 23.0924 104.109 22.383 103.635C21.6736 103.161 21.1208 102.488 20.7943 101.699C20.4678 100.911 20.3823 100.044 20.5487 99.2071C20.7151 98.3703 21.1259 97.6017 21.7292 96.9984L30.8799 87.8475C31.6889 87.0385 32.7861 86.584 33.9302 86.584C35.0743 86.584 36.1716 87.0384 36.9806 87.8474C37.7896 88.6564 38.2442 89.7537 38.2442 90.8978C38.2442 92.0419 37.7897 93.1391 36.9807 93.9482L27.83 103.099C27.4299 103.5 26.9544 103.818 26.4309 104.035C25.9074 104.252 25.3462 104.363 24.7796 104.362V104.362Z" fill="#2F2E41"/>
<path d="M120.514 64.7076H107.573C106.43 64.7058 105.334 64.2505 104.527 63.4417C103.719 62.6329 103.266 61.5367 103.266 60.3937C103.266 59.2507 103.719 58.1545 104.527 57.3457C105.334 56.5369 106.43 56.0816 107.573 56.0799H120.514C121.081 56.079 121.643 56.1899 122.167 56.4063C122.691 56.6228 123.168 56.9404 123.569 57.341C123.97 57.7417 124.289 58.2176 124.506 58.7414C124.723 59.2652 124.835 59.8267 124.835 60.3937C124.835 60.9608 124.723 61.5222 124.506 62.0461C124.289 62.5699 123.97 63.0457 123.569 63.4464C123.168 63.847 122.691 64.1646 122.167 64.381C121.643 64.5975 121.081 64.7084 120.514 64.7076V64.7076Z" fill="#2F2E41"/>
<path d="M21.2962 64.7076H8.35474C7.78768 64.7084 7.22601 64.5975 6.70187 64.381C6.17774 64.1646 5.70141 63.847 5.30014 63.4464C4.89887 63.0457 4.58051 62.5699 4.36331 62.0461C4.14611 61.5222 4.03433 60.9608 4.03433 60.3937C4.03433 59.8267 4.14611 59.2652 4.36331 58.7414C4.58051 58.2176 4.89887 57.7417 5.30014 57.341C5.70141 56.9404 6.17774 56.6228 6.70187 56.4063C7.22601 56.1899 7.78768 56.079 8.35474 56.0799H21.2962C22.4392 56.0816 23.5348 56.5369 24.3423 57.3457C25.1499 58.1545 25.6035 59.2507 25.6035 60.3937C25.6035 61.5367 25.1499 62.6329 24.3423 63.4417C23.5348 64.2505 22.4392 64.7058 21.2962 64.7076H21.2962Z" fill="#2F2E41"/>
<path d="M104.09 104.362C103.523 104.363 102.962 104.252 102.438 104.035C101.915 103.818 101.439 103.5 101.039 103.099L91.8884 93.9482C91.4871 93.5477 91.1686 93.0721 90.9513 92.5486C90.7339 92.025 90.6218 91.4638 90.6215 90.8969C90.6212 90.33 90.7326 89.7686 90.9494 89.2448C91.1662 88.721 91.4842 88.2451 91.885 87.8442C92.2859 87.4434 92.7618 87.1254 93.2856 86.9086C93.8094 86.6918 94.3708 86.5804 94.9377 86.5807C95.5046 86.581 96.0658 86.6931 96.5894 86.9105C97.1129 87.1278 97.5885 87.4463 97.989 87.8476L107.14 96.9984C107.743 97.6017 108.154 98.3704 108.32 99.2072C108.487 100.044 108.401 100.911 108.075 101.7C107.748 102.488 107.195 103.161 106.486 103.635C105.777 104.11 104.943 104.363 104.09 104.363V104.362Z" fill="#2F2E41"/>
<path d="M33.9303 34.2033C33.3637 34.204 32.8025 34.0928 32.2791 33.8759C31.7556 33.6591 31.2801 33.3409 30.88 32.9397L21.7292 23.7892C21.3286 23.3886 21.0108 22.913 20.794 22.3896C20.5772 21.8662 20.4657 21.3053 20.4657 20.7387C20.4657 20.1722 20.5772 19.6113 20.794 19.0879C21.0108 18.5645 21.3286 18.0889 21.7292 17.6883C22.1298 17.2878 22.6053 16.97 23.1287 16.7532C23.6521 16.5364 24.2131 16.4248 24.7796 16.4248C25.3461 16.4248 25.9071 16.5364 26.4305 16.7532C26.9538 16.97 27.4294 17.2878 27.83 17.6883L36.9806 26.8392C37.5839 27.4425 37.9947 28.2111 38.1611 29.0479C38.3276 29.8847 38.2421 30.752 37.9156 31.5403C37.5892 32.3285 37.0363 33.0022 36.3269 33.4762C35.6175 33.9503 34.7835 34.2033 33.9303 34.2033V34.2033Z" fill="#2F2E41"/>
<path d="M64.4345 86.2767C59.3154 86.2767 54.3112 84.7587 50.0547 81.9146C45.7983 79.0706 42.4808 75.0282 40.5218 70.2987C38.5628 65.5692 38.0502 60.365 39.0489 55.3442C40.0476 50.3234 42.5127 45.7115 46.1325 42.0917C49.7523 38.4719 54.3642 36.0068 59.385 35.0081C64.4058 34.0094 69.61 34.5219 74.3395 36.4809C79.069 38.44 83.1114 41.7575 85.9555 46.0139C88.7995 50.2703 90.3176 55.2745 90.3176 60.3937C90.3098 67.2559 87.5803 73.8349 82.728 78.6872C77.8757 83.5395 71.2968 86.2689 64.4345 86.2767V86.2767ZM64.4345 43.1384C61.0218 43.1384 57.6856 44.1504 54.848 46.0464C52.0104 47.9425 49.7987 50.6374 48.4927 53.7904C47.1867 56.9434 46.845 60.4129 47.5108 63.7601C48.1766 67.1073 49.82 70.1819 52.2332 72.5951C54.6464 75.0083 57.721 76.6517 61.0682 77.3175C64.4154 77.9833 67.8849 77.6416 71.0379 76.3356C74.1909 75.0296 76.8858 72.8179 78.7818 69.9803C80.6779 67.1426 81.6899 63.8065 81.6899 60.3937C81.6847 55.8189 79.8651 51.433 76.6302 48.1981C73.3953 44.9632 69.0093 43.1436 64.4345 43.1384V43.1384Z" fill="#2F2E41"/>
</g>
<defs>
<filter id="filter0_d_1_30" x="0.0343323" y="0.00656128" width="128.8" height="128.781" filterUnits="userSpaceOnUse" color-interpolation-filters="sRGB">
<feFlood flood-opacity="0" result="BackgroundImageFix"/>
<feColorMatrix in="SourceAlpha" type="matrix" values="0 0 0 0 0 0 0 0 0 0 0 0 0 0 0 0 0 0 127 0" result="hardAlpha"/>
<feOffset dy="4"/>
<feGaussianBlur stdDeviation="2"/>
<feComposite in2="hardAlpha" operator="out"/>
<feColorMatrix type="matrix" values="0 0 0 0 0 0 0 0 0 0 0 0 0 0 0 0 0 0 0.25 0"/>
<feBlend mode="normal" in2="BackgroundImageFix" result="effect1_dropShadow_1_30"/>
<feBlend mode="normal" in="SourceGraphic" in2="effect1_dropShadow_1_30" result="shape"/>
</filter>
</defs>
</svg>
