<svg width="121" height="121" viewBox="0 0 121 121" fill="none" xmlns="http://www.w3.org/2000/svg">
<path d="M60.4345 21.5692C59.2905 21.5691 58.1932 21.1146 57.3842 20.3056C56.5753 19.4967 56.1207 18.3994 56.1207 17.2553V4.31384C56.1225 3.17088 56.5777 2.07531 57.3865 1.26773C58.1953 0.460149 59.2916 0.00656128 60.4346 0.00656128C61.5775 0.00656128 62.6738 0.460149 63.4826 1.26773C64.2914 2.07531 64.7467 3.17088 64.7484 4.31384V17.2553C64.7484 17.8218 64.6368 18.3828 64.42 18.9062C64.2033 19.4296 63.8855 19.9051 63.4849 20.3057C63.0843 20.7063 62.6088 21.024 62.0854 21.2408C61.562 21.4576 61.001 21.5692 60.4345 21.5692V21.5692Z" fill="#6C63FF"/>
<path d="M60.4345 120.787C59.868 120.787 59.3071 120.676 58.7837 120.459C58.2603 120.242 57.7848 119.925 57.3842 119.524C56.9836 119.123 56.6659 118.648 56.4491 118.124C56.2323 117.601 56.1207 117.04 56.1207 116.474V103.532C56.1199 102.965 56.2308 102.403 56.4472 101.879C56.6636 101.355 56.9812 100.879 57.3819 100.477C57.7825 100.076 58.2584 99.7579 58.7822 99.5406C59.306 99.3234 59.8675 99.2117 60.4345 99.2117C61.0016 99.2117 61.5631 99.3234 62.0869 99.5406C62.6107 99.7579 63.0866 100.076 63.4872 100.477C63.8879 100.879 64.2055 101.355 64.4219 101.879C64.6383 102.403 64.7493 102.965 64.7484 103.532V116.474C64.7484 117.04 64.6368 117.601 64.42 118.124C64.2033 118.648 63.8855 119.123 63.4849 119.524C63.0843 119.925 62.6088 120.242 62.0854 120.459C61.562 120.676 61.0011 120.787 60.4345 120.787V120.787Z" fill="#6C63FF"/>
<path d="M90.9387 34.2033C90.0855 34.2033 89.2515 33.9502 88.5421 33.4762C87.8327 33.0022 87.2798 32.3285 86.9533 31.5402C86.6268 30.752 86.5414 29.8846 86.7078 29.0478C86.8743 28.211 87.2851 27.4424 87.8884 26.8391L97.0392 17.6883C97.8484 16.8801 98.9454 16.4263 100.089 16.4267C101.233 16.427 102.329 16.8815 103.138 17.6902C103.947 18.499 104.401 19.5957 104.402 20.7394C104.402 21.883 103.948 22.98 103.14 23.7892L93.989 32.9399C93.5888 33.341 93.1133 33.6591 92.5899 33.8759C92.0664 34.0928 91.5053 34.204 90.9387 34.2033V34.2033Z" fill="#6C63FF"/>
<path d="M20.7796 104.362C19.9264 104.362 19.0924 104.109 18.383 103.635C17.6736 103.161 17.1208 102.488 16.7943 101.699C16.4678 100.911 16.3823 100.044 16.5487 99.2071C16.7151 98.3703 17.1259 97.6017 17.7292 96.9984L26.8799 87.8475C27.6889 87.0385 28.7861 86.584 29.9302 86.584C31.0743 86.584 32.1716 87.0384 32.9806 87.8474C33.7896 88.6564 34.2442 89.7537 34.2442 90.8978C34.2442 92.0419 33.7897 93.1391 32.9807 93.9482L23.83 103.099C23.4299 103.5 22.9544 103.818 22.4309 104.035C21.9074 104.252 21.3462 104.363 20.7796 104.362V104.362Z" fill="#6C63FF"/>
<path d="M116.514 64.7076H103.573C102.43 64.7058 101.334 64.2505 100.527 63.4417C99.7192 62.6329 99.2656 61.5367 99.2656 60.3937C99.2656 59.2507 99.7192 58.1545 100.527 57.3457C101.334 56.5369 102.43 56.0816 103.573 56.0799H116.514C117.081 56.079 117.643 56.1899 118.167 56.4063C118.691 56.6228 119.168 56.9404 119.569 57.341C119.97 57.7417 120.289 58.2176 120.506 58.7414C120.723 59.2652 120.835 59.8267 120.835 60.3937C120.835 60.9608 120.723 61.5222 120.506 62.0461C120.289 62.5699 119.97 63.0457 119.569 63.4464C119.168 63.847 118.691 64.1646 118.167 64.381C117.643 64.5975 117.081 64.7084 116.514 64.7076V64.7076Z" fill="#6C63FF"/>
<path d="M17.2962 64.7076H4.35474C3.78768 64.7084 3.22601 64.5975 2.70187 64.381C2.17774 64.1646 1.70141 63.847 1.30014 63.4464C0.898867 63.0457 0.580513 62.5699 0.363312 62.0461C0.14611 61.5222 0.0343323 60.9608 0.0343323 60.3937C0.0343323 59.8267 0.14611 59.2652 0.363312 58.7414C0.580513 58.2176 0.898867 57.7417 1.30014 57.341C1.70141 56.9404 2.17774 56.6228 2.70187 56.4063C3.22601 56.1899 3.78768 56.079 4.35474 56.0799H17.2962C18.4392 56.0816 19.5348 56.5369 20.3423 57.3457C21.1499 58.1545 21.6035 59.2507 21.6035 60.3937C21.6035 61.5367 21.1499 62.6329 20.3423 63.4417C19.5348 64.2505 18.4392 64.7058 17.2962 64.7076H17.2962Z" fill="#6C63FF"/>
<path d="M100.09 104.362C99.5229 104.363 98.9617 104.252 98.4383 104.035C97.9148 103.818 97.4393 103.5 97.0392 103.099L87.8884 93.9482C87.4871 93.5477 87.1686 93.0721 86.9513 92.5486C86.7339 92.025 86.6218 91.4638 86.6215 90.8969C86.6212 90.33 86.7326 89.7686 86.9494 89.2448C87.1662 88.721 87.4842 88.2451 87.885 87.8442C88.2859 87.4434 88.7618 87.1254 89.2856 86.9086C89.8094 86.6918 90.3708 86.5804 90.9377 86.5807C91.5046 86.581 92.0658 86.6931 92.5894 86.9105C93.1129 87.1278 93.5885 87.4463 93.989 87.8476L103.14 96.9984C103.743 97.6017 104.154 98.3704 104.32 99.2072C104.487 100.044 104.401 100.911 104.075 101.7C103.748 102.488 103.195 103.161 102.486 103.635C101.777 104.11 100.943 104.363 100.09 104.363V104.362Z" fill="#6C63FF"/>
<path d="M29.9303 34.2033C29.3637 34.204 28.8025 34.0928 28.2791 33.8759C27.7556 33.6591 27.2801 33.3409 26.88 32.9397L17.7292 23.7892C17.3286 23.3886 17.0108 22.913 16.794 22.3896C16.5772 21.8662 16.4657 21.3053 16.4657 20.7387C16.4657 20.1722 16.5772 19.6113 16.794 19.0879C17.0108 18.5645 17.3286 18.0889 17.7292 17.6883C18.1298 17.2878 18.6053 16.97 19.1287 16.7532C19.6521 16.5364 20.2131 16.4248 20.7796 16.4248C21.3461 16.4248 21.9071 16.5364 22.4305 16.7532C22.9538 16.97 23.4294 17.2878 23.83 17.6883L32.9806 26.8392C33.5839 27.4425 33.9947 28.2111 34.1611 29.0479C34.3276 29.8847 34.2421 30.752 33.9156 31.5403C33.5892 32.3285 33.0363 33.0022 32.3269 33.4762C31.6175 33.9503 30.7835 34.2033 29.9303 34.2033V34.2033Z" fill="#6C63FF"/>
<path d="M60.4345 86.2767C55.3154 86.2767 50.3112 84.7587 46.0547 81.9146C41.7983 79.0706 38.4808 75.0282 36.5218 70.2987C34.5628 65.5692 34.0502 60.365 35.0489 55.3442C36.0476 50.3234 38.5127 45.7115 42.1325 42.0917C45.7523 38.4719 50.3642 36.0068 55.385 35.0081C60.4058 34.0094 65.61 34.5219 70.3395 36.4809C75.069 38.44 79.1114 41.7575 81.9555 46.0139C84.7995 50.2703 86.3176 55.2745 86.3176 60.3937C86.3098 67.2559 83.5803 73.8349 78.728 78.6872C73.8757 83.5395 67.2968 86.2689 60.4345 86.2767V86.2767ZM60.4345 43.1384C57.0218 43.1384 53.6856 44.1504 50.848 46.0464C48.0104 47.9425 45.7987 50.6374 44.4927 53.7904C43.1867 56.9434 42.845 60.4129 43.5108 63.7601C44.1766 67.1073 45.82 70.1819 48.2332 72.5951C50.6464 75.0083 53.721 76.6517 57.0682 77.3175C60.4154 77.9833 63.8849 77.6416 67.0379 76.3356C70.1909 75.0296 72.8858 72.8179 74.7818 69.9803C76.6779 67.1426 77.6899 63.8065 77.6899 60.3937C77.6847 55.8189 75.8651 51.433 72.6302 48.1981C69.3953 44.9632 65.0093 43.1436 60.4345 43.1384V43.1384Z" fill="#6C63FF"/>
</svg>
